<?xml version="1.0" encoding="UTF-8"?>
<svg version="1.1" viewBox="0 0 3520 1664" width="220" height="104" xmlns="http://www.w3.org/2000/svg">
<path transform="translate(549,127)" d="m0 0h2364l21 1 7 2 5 5 2 5 19 2h17l18 5 11 7 13 5 11 5 6 4 10 5 7 1h8l13 5 9 7 16 13 5 3 16 8 9 6 13 11 10 7 16 8 9 6 16 15 16 16 11 14 5 9 4 10 8 10 14 15 8 9 10 14 11 21 9 17 12 26 7 26 4 11 5 11 6 26 2 8 7 8 3 7 1 14 1 33v963l-1 2-4 1-78 1h-218l-4-3-1-12-1-32v-881l1-46v-25l-8-10-9-10-7-8-5-8-5-13-6-8-8-8-12-7-10-4-18-10-16-6-10-7-4-3-4-1-30-1h-1012l-1 39-1 799-1 179-2 15-8 13-7 17-9 12-9 10-7 8-12 12-13 10-12 6-23 11-14 3-13 1h-62l-10-2-9-5-19-10-14-10-7-7-8-7v-2l-3-1-7-8-11-12-8-12-9-20-6-11-2-10-1-17-1-45v-880l1-76h-1043l-7 1-7 11-2 1-15 2h-13l-8 3-13 12-10 8-3 4h-2v2l-8 7-9 11-5 6-4 8-5 15-7 7-2 4-2 47-1 625v325l-1 2-4 1-74 1-202 1-22-1-2-2-1-11-1-25v-729l1-205 1-45 1-11 5-10 7-9 4-24 4-11 8-15 6-14 9-15 10-22 8-14 7-16 10-11 9-11 9-9 8-10 5-6 4-12 5-8 8-8 7-9 19-19 11-9 8-6 11-4 8-6 16-13 12-12 13-10 34-17 6-2 20-3 10-5 9-6 16-5 14-9 8-3 6-1 22-1 16-2 5-3 7-8z" fill="#FDFDFD"/>
</svg>
